<mxfile host="app.diagrams.net" modified="2023-04-20T15:30:58.722Z" agent="Mozilla/5.0 (X11; Linux x86_64) AppleWebKit/537.36 (KHTML, like Gecko) Chrome/110.0.0.0 Safari/537.36" etag="E5cYPXdYxScNmcj7kpjX" version="21.1.5" type="device" pages="2">
  <diagram id="t4k0E-SABpgM97s7EL_-" name="Page-3">
    <mxGraphModel dx="641" dy="694" grid="1" gridSize="10" guides="1" tooltips="1" connect="1" arrows="1" fold="1" page="1" pageScale="1" pageWidth="850" pageHeight="1100" math="0" shadow="0">
      <root>
        <mxCell id="0" />
        <mxCell id="1" parent="0" />
        <mxCell id="RdPhc7EFlPakd53mFmWk-3" style="edgeStyle=orthogonalEdgeStyle;rounded=0;orthogonalLoop=1;jettySize=auto;html=1;" parent="1" source="485rjCYsF4bykk35fohO-1" target="8aYvebIrIMW1gFPimgRE-1" edge="1">
          <mxGeometry relative="1" as="geometry" />
        </mxCell>
        <mxCell id="RdPhc7EFlPakd53mFmWk-4" value="Επιλέγει&lt;br&gt;&amp;nbsp;εκδήλωση" style="edgeLabel;html=1;align=center;verticalAlign=middle;resizable=0;points=[];" parent="RdPhc7EFlPakd53mFmWk-3" vertex="1" connectable="0">
          <mxGeometry x="0.1625" y="-5" relative="1" as="geometry">
            <mxPoint x="15" y="-27" as="offset" />
          </mxGeometry>
        </mxCell>
        <mxCell id="NXZrL_3qnQfTrOwrGrDA-2" style="edgeStyle=orthogonalEdgeStyle;rounded=0;orthogonalLoop=1;jettySize=auto;html=1;" parent="1" source="485rjCYsF4bykk35fohO-1" target="NXZrL_3qnQfTrOwrGrDA-1" edge="1">
          <mxGeometry relative="1" as="geometry" />
        </mxCell>
        <mxCell id="NXZrL_3qnQfTrOwrGrDA-3" value="Επιλέγει κριτήρια &lt;br&gt;αναζήτησης" style="edgeLabel;html=1;align=center;verticalAlign=middle;resizable=0;points=[];" parent="NXZrL_3qnQfTrOwrGrDA-2" vertex="1" connectable="0">
          <mxGeometry x="0.17" y="3" relative="1" as="geometry">
            <mxPoint x="47" y="-17" as="offset" />
          </mxGeometry>
        </mxCell>
        <mxCell id="NXZrL_3qnQfTrOwrGrDA-12" style="edgeStyle=orthogonalEdgeStyle;rounded=0;orthogonalLoop=1;jettySize=auto;html=1;entryX=-0.01;entryY=0.488;entryDx=0;entryDy=0;entryPerimeter=0;" parent="1" source="485rjCYsF4bykk35fohO-1" target="NXZrL_3qnQfTrOwrGrDA-8" edge="1">
          <mxGeometry relative="1" as="geometry" />
        </mxCell>
        <mxCell id="NXZrL_3qnQfTrOwrGrDA-13" value="Εγγράφεται στην&lt;br&gt;&amp;nbsp;εκδήλωση" style="edgeLabel;html=1;align=center;verticalAlign=middle;resizable=0;points=[];" parent="NXZrL_3qnQfTrOwrGrDA-12" vertex="1" connectable="0">
          <mxGeometry x="0.283" y="2" relative="1" as="geometry">
            <mxPoint x="48" y="16" as="offset" />
          </mxGeometry>
        </mxCell>
        <mxCell id="BCX9HXl51WvZ3bwdL8ku-7" style="edgeStyle=orthogonalEdgeStyle;rounded=0;orthogonalLoop=1;jettySize=auto;html=1;entryX=0.008;entryY=0.51;entryDx=0;entryDy=0;entryPerimeter=0;" parent="1" source="485rjCYsF4bykk35fohO-1" target="NXZrL_3qnQfTrOwrGrDA-16" edge="1">
          <mxGeometry relative="1" as="geometry" />
        </mxCell>
        <mxCell id="BCX9HXl51WvZ3bwdL8ku-8" value="Επιλέγει συγκεκριμένη &lt;br&gt;ημερομηνία και ώρα" style="edgeLabel;html=1;align=center;verticalAlign=middle;resizable=0;points=[];" parent="BCX9HXl51WvZ3bwdL8ku-7" vertex="1" connectable="0">
          <mxGeometry x="0.4154" y="-3" relative="1" as="geometry">
            <mxPoint x="63" y="30" as="offset" />
          </mxGeometry>
        </mxCell>
        <mxCell id="MpqgmqiErPWoHgp3vNXM-6" style="edgeStyle=orthogonalEdgeStyle;rounded=0;orthogonalLoop=1;jettySize=auto;html=1;entryX=0.008;entryY=0.47;entryDx=0;entryDy=0;entryPerimeter=0;" parent="1" source="485rjCYsF4bykk35fohO-1" target="MpqgmqiErPWoHgp3vNXM-4" edge="1">
          <mxGeometry relative="1" as="geometry" />
        </mxCell>
        <mxCell id="MpqgmqiErPWoHgp3vNXM-7" value="Αντιγραφή συνδέσμου" style="edgeLabel;html=1;align=center;verticalAlign=middle;resizable=0;points=[];" parent="MpqgmqiErPWoHgp3vNXM-6" vertex="1" connectable="0">
          <mxGeometry x="0.5439" y="1" relative="1" as="geometry">
            <mxPoint x="59" y="93" as="offset" />
          </mxGeometry>
        </mxCell>
        <mxCell id="485rjCYsF4bykk35fohO-1" value="&amp;nbsp;Απλός Χρήστης" style="shape=umlActor;verticalLabelPosition=bottom;verticalAlign=top;html=1;outlineConnect=0;" parent="1" vertex="1">
          <mxGeometry x="20" y="90" width="50" height="100" as="geometry" />
        </mxCell>
        <mxCell id="NXZrL_3qnQfTrOwrGrDA-10" style="edgeStyle=orthogonalEdgeStyle;rounded=0;orthogonalLoop=1;jettySize=auto;html=1;exitX=1;exitY=0.513;exitDx=0;exitDy=0;exitPerimeter=0;" parent="1" source="8aYvebIrIMW1gFPimgRE-1" target="NXZrL_3qnQfTrOwrGrDA-9" edge="1">
          <mxGeometry relative="1" as="geometry">
            <Array as="points">
              <mxPoint x="290" y="70" />
            </Array>
          </mxGeometry>
        </mxCell>
        <mxCell id="8aYvebIrIMW1gFPimgRE-1" value="Οθόνη Διαθέσιμων εκδηλώσεων" style="shape=umlBoundary;whiteSpace=wrap;html=1;" parent="1" vertex="1">
          <mxGeometry x="190" y="60" width="100" height="80" as="geometry" />
        </mxCell>
        <mxCell id="NXZrL_3qnQfTrOwrGrDA-6" style="edgeStyle=orthogonalEdgeStyle;rounded=0;orthogonalLoop=1;jettySize=auto;html=1;entryX=0.014;entryY=0.538;entryDx=0;entryDy=0;entryPerimeter=0;" parent="1" source="NXZrL_3qnQfTrOwrGrDA-1" target="NXZrL_3qnQfTrOwrGrDA-5" edge="1">
          <mxGeometry relative="1" as="geometry" />
        </mxCell>
        <mxCell id="NXZrL_3qnQfTrOwrGrDA-1" value="Οθόνη Επιλογής κριτηρίων αναζήτσης" style="shape=umlBoundary;whiteSpace=wrap;html=1;" parent="1" vertex="1">
          <mxGeometry x="190" y="180" width="100" height="80" as="geometry" />
        </mxCell>
        <mxCell id="NXZrL_3qnQfTrOwrGrDA-7" style="edgeStyle=orthogonalEdgeStyle;rounded=0;orthogonalLoop=1;jettySize=auto;html=1;" parent="1" source="NXZrL_3qnQfTrOwrGrDA-5" target="8aYvebIrIMW1gFPimgRE-1" edge="1">
          <mxGeometry relative="1" as="geometry">
            <Array as="points">
              <mxPoint x="365" y="100" />
            </Array>
          </mxGeometry>
        </mxCell>
        <mxCell id="NXZrL_3qnQfTrOwrGrDA-5" value="Ανανέωσε" style="ellipse;shape=umlControl;whiteSpace=wrap;html=1;" parent="1" vertex="1">
          <mxGeometry x="330" y="177" width="70" height="80" as="geometry" />
        </mxCell>
        <mxCell id="8i0UhGORvvbaVkcxgrIk-2" style="edgeStyle=orthogonalEdgeStyle;rounded=0;orthogonalLoop=1;jettySize=auto;html=1;" edge="1" parent="1" source="NXZrL_3qnQfTrOwrGrDA-8" target="BCX9HXl51WvZ3bwdL8ku-1">
          <mxGeometry relative="1" as="geometry">
            <Array as="points">
              <mxPoint x="250" y="410" />
            </Array>
          </mxGeometry>
        </mxCell>
        <mxCell id="NXZrL_3qnQfTrOwrGrDA-8" value="Οθόνη Λεπτομερών στοιχείων Εκδήλωσης" style="shape=umlBoundary;whiteSpace=wrap;html=1;" parent="1" vertex="1">
          <mxGeometry x="190" y="300" width="100" height="80" as="geometry" />
        </mxCell>
        <mxCell id="NXZrL_3qnQfTrOwrGrDA-11" style="edgeStyle=orthogonalEdgeStyle;rounded=0;orthogonalLoop=1;jettySize=auto;html=1;" parent="1" source="NXZrL_3qnQfTrOwrGrDA-9" target="NXZrL_3qnQfTrOwrGrDA-8" edge="1">
          <mxGeometry relative="1" as="geometry">
            <Array as="points">
              <mxPoint x="425" y="340" />
            </Array>
          </mxGeometry>
        </mxCell>
        <mxCell id="NXZrL_3qnQfTrOwrGrDA-9" value="Εμφάνισε" style="ellipse;shape=umlControl;whiteSpace=wrap;html=1;" parent="1" vertex="1">
          <mxGeometry x="390" y="30" width="70" height="80" as="geometry" />
        </mxCell>
        <mxCell id="NXZrL_3qnQfTrOwrGrDA-17" style="edgeStyle=orthogonalEdgeStyle;rounded=0;orthogonalLoop=1;jettySize=auto;html=1;" parent="1" source="NXZrL_3qnQfTrOwrGrDA-14" target="NXZrL_3qnQfTrOwrGrDA-16" edge="1">
          <mxGeometry relative="1" as="geometry" />
        </mxCell>
        <mxCell id="NXZrL_3qnQfTrOwrGrDA-14" value="Εμφάνισε" style="ellipse;shape=umlControl;whiteSpace=wrap;html=1;" parent="1" vertex="1">
          <mxGeometry x="330" y="515" width="70" height="80" as="geometry" />
        </mxCell>
        <mxCell id="BCX9HXl51WvZ3bwdL8ku-10" style="edgeStyle=orthogonalEdgeStyle;rounded=0;orthogonalLoop=1;jettySize=auto;html=1;entryX=0.3;entryY=0.175;entryDx=0;entryDy=0;entryPerimeter=0;" parent="1" edge="1">
          <mxGeometry relative="1" as="geometry">
            <mxPoint x="260.02857142857135" y="595" as="sourcePoint" />
            <mxPoint x="260" y="642" as="targetPoint" />
          </mxGeometry>
        </mxCell>
        <mxCell id="NXZrL_3qnQfTrOwrGrDA-16" value="Οθόνη Διαθέσιμων ώρων και ημερομηνιών" style="shape=umlBoundary;whiteSpace=wrap;html=1;" parent="1" vertex="1">
          <mxGeometry x="190" y="505" width="120" height="100" as="geometry" />
        </mxCell>
        <mxCell id="BCX9HXl51WvZ3bwdL8ku-5" style="edgeStyle=orthogonalEdgeStyle;rounded=0;orthogonalLoop=1;jettySize=auto;html=1;entryX=0.471;entryY=0.063;entryDx=0;entryDy=0;entryPerimeter=0;" parent="1" target="NXZrL_3qnQfTrOwrGrDA-14" edge="1">
          <mxGeometry relative="1" as="geometry">
            <Array as="points" />
            <mxPoint x="363.0000000000001" y="450.00367013608206" as="sourcePoint" />
            <mxPoint x="363" y="500" as="targetPoint" />
          </mxGeometry>
        </mxCell>
        <mxCell id="BCX9HXl51WvZ3bwdL8ku-6" value="&lt;b&gt;&lt;font style=&quot;font-size: 12px;&quot;&gt;Οχι&lt;/font&gt;&lt;/b&gt;" style="edgeLabel;html=1;align=center;verticalAlign=middle;resizable=0;points=[];" parent="BCX9HXl51WvZ3bwdL8ku-5" vertex="1" connectable="0">
          <mxGeometry x="-0.2023" relative="1" as="geometry">
            <mxPoint x="69" y="-82" as="offset" />
          </mxGeometry>
        </mxCell>
        <mxCell id="cA_QYkyTXe2NhLURIJ-S-3" style="edgeStyle=orthogonalEdgeStyle;rounded=0;orthogonalLoop=1;jettySize=auto;html=1;fillColor=#f8cecc;strokeColor=#b85450;" parent="1" source="BCX9HXl51WvZ3bwdL8ku-1" edge="1">
          <mxGeometry relative="1" as="geometry">
            <mxPoint x="474" y="410" as="targetPoint" />
          </mxGeometry>
        </mxCell>
        <mxCell id="cA_QYkyTXe2NhLURIJ-S-4" value="&lt;b&gt;&lt;font style=&quot;font-size: 12px;&quot;&gt;Ναι&lt;/font&gt;&lt;/b&gt;" style="edgeLabel;html=1;align=center;verticalAlign=middle;resizable=0;points=[];" parent="cA_QYkyTXe2NhLURIJ-S-3" vertex="1" connectable="0">
          <mxGeometry x="0.25" y="-3" relative="1" as="geometry">
            <mxPoint x="-96" y="67" as="offset" />
          </mxGeometry>
        </mxCell>
        <mxCell id="BCX9HXl51WvZ3bwdL8ku-1" value="κενό invite link ?" style="ellipse;shape=umlControl;whiteSpace=wrap;html=1;" parent="1" vertex="1">
          <mxGeometry x="330" y="370" width="70" height="80" as="geometry" />
        </mxCell>
        <mxCell id="6gQCje3aT5bfTaFtWArD-2" style="edgeStyle=orthogonalEdgeStyle;rounded=0;orthogonalLoop=1;jettySize=auto;html=1;fillColor=#f8cecc;strokeColor=#b85450;" parent="1" source="BCX9HXl51WvZ3bwdL8ku-9" target="6gQCje3aT5bfTaFtWArD-1" edge="1">
          <mxGeometry relative="1" as="geometry">
            <Array as="points">
              <mxPoint x="350" y="678" />
              <mxPoint x="350" y="630" />
            </Array>
          </mxGeometry>
        </mxCell>
        <mxCell id="6gQCje3aT5bfTaFtWArD-3" value="&lt;b&gt;&lt;font style=&quot;font-size: 12px;&quot;&gt;Οχι&lt;/font&gt;&lt;/b&gt;" style="edgeLabel;html=1;align=center;verticalAlign=middle;resizable=0;points=[];" parent="6gQCje3aT5bfTaFtWArD-2" vertex="1" connectable="0">
          <mxGeometry x="-0.2745" y="1" relative="1" as="geometry">
            <mxPoint y="-24" as="offset" />
          </mxGeometry>
        </mxCell>
        <mxCell id="6gQCje3aT5bfTaFtWArD-4" style="edgeStyle=orthogonalEdgeStyle;rounded=0;orthogonalLoop=1;jettySize=auto;html=1;entryX=0.006;entryY=0.614;entryDx=0;entryDy=0;entryPerimeter=0;" parent="1" edge="1">
          <mxGeometry relative="1" as="geometry">
            <mxPoint x="404.41999999999996" y="749.1200000000001" as="targetPoint" />
            <Array as="points">
              <mxPoint x="350" y="678" />
              <mxPoint x="350" y="750" />
              <mxPoint x="404" y="750" />
            </Array>
            <mxPoint x="299" y="678" as="sourcePoint" />
          </mxGeometry>
        </mxCell>
        <mxCell id="6gQCje3aT5bfTaFtWArD-5" value="&lt;b style=&quot;font-size: 12px;&quot;&gt;Ναι&lt;/b&gt;" style="edgeLabel;html=1;align=center;verticalAlign=middle;resizable=0;points=[];fontSize=12;" parent="6gQCje3aT5bfTaFtWArD-4" vertex="1" connectable="0">
          <mxGeometry x="0.2397" y="-2" relative="1" as="geometry">
            <mxPoint y="-16" as="offset" />
          </mxGeometry>
        </mxCell>
        <mxCell id="BCX9HXl51WvZ3bwdL8ku-9" value="Ο χρήστης επιβεβαιώνει εγγαφή ?" style="ellipse;shape=umlControl;whiteSpace=wrap;html=1;" parent="1" vertex="1">
          <mxGeometry x="229" y="638" width="70" height="80" as="geometry" />
        </mxCell>
        <mxCell id="6gQCje3aT5bfTaFtWArD-1" value="&lt;div&gt;Αρχική&lt;/div&gt;&lt;div&gt;Οθόνη&lt;br&gt;&lt;/div&gt;" style="shape=umlBoundary;whiteSpace=wrap;html=1;" parent="1" vertex="1">
          <mxGeometry x="400" y="590" width="100" height="80" as="geometry" />
        </mxCell>
        <mxCell id="MpqgmqiErPWoHgp3vNXM-9" style="edgeStyle=orthogonalEdgeStyle;rounded=0;orthogonalLoop=1;jettySize=auto;html=1;" parent="1" source="MpqgmqiErPWoHgp3vNXM-1" target="MpqgmqiErPWoHgp3vNXM-8" edge="1">
          <mxGeometry relative="1" as="geometry">
            <Array as="points">
              <mxPoint x="532" y="750" />
              <mxPoint x="532" y="705" />
            </Array>
          </mxGeometry>
        </mxCell>
        <mxCell id="8i0UhGORvvbaVkcxgrIk-4" style="edgeStyle=orthogonalEdgeStyle;rounded=0;orthogonalLoop=1;jettySize=auto;html=1;" edge="1" parent="1" source="MpqgmqiErPWoHgp3vNXM-1" target="8i0UhGORvvbaVkcxgrIk-3">
          <mxGeometry relative="1" as="geometry">
            <Array as="points">
              <mxPoint x="532" y="750" />
              <mxPoint x="532" y="810" />
            </Array>
          </mxGeometry>
        </mxCell>
        <mxCell id="UJacOlHFctdMWeNUAbmr-2" style="edgeStyle=orthogonalEdgeStyle;rounded=0;orthogonalLoop=1;jettySize=auto;html=1;entryX=0.502;entryY=0.05;entryDx=0;entryDy=0;entryPerimeter=0;" edge="1" parent="1" source="MpqgmqiErPWoHgp3vNXM-1" target="UJacOlHFctdMWeNUAbmr-1">
          <mxGeometry relative="1" as="geometry" />
        </mxCell>
        <mxCell id="MpqgmqiErPWoHgp3vNXM-1" value="Αποθήκευσε" style="ellipse;shape=umlControl;whiteSpace=wrap;html=1;" parent="1" vertex="1">
          <mxGeometry x="404" y="700" width="70" height="80" as="geometry" />
        </mxCell>
        <mxCell id="MpqgmqiErPWoHgp3vNXM-5" style="edgeStyle=orthogonalEdgeStyle;rounded=0;orthogonalLoop=1;jettySize=auto;html=1;entryX=0.61;entryY=-0.02;entryDx=0;entryDy=0;entryPerimeter=0;" parent="1" source="MpqgmqiErPWoHgp3vNXM-2" target="MpqgmqiErPWoHgp3vNXM-4" edge="1">
          <mxGeometry relative="1" as="geometry" />
        </mxCell>
        <mxCell id="MpqgmqiErPWoHgp3vNXM-2" value="Εμφάνισε" style="ellipse;shape=umlControl;whiteSpace=wrap;html=1;" parent="1" vertex="1">
          <mxGeometry x="229" y="810" width="70" height="80" as="geometry" />
        </mxCell>
        <mxCell id="MpqgmqiErPWoHgp3vNXM-4" value="Οθόνη με το Προσωπικό invite link" style="shape=umlBoundary;whiteSpace=wrap;html=1;" parent="1" vertex="1">
          <mxGeometry x="190" y="920" width="120" height="100" as="geometry" />
        </mxCell>
        <mxCell id="cA_QYkyTXe2NhLURIJ-S-2" style="edgeStyle=orthogonalEdgeStyle;rounded=0;orthogonalLoop=1;jettySize=auto;html=1;entryX=0.5;entryY=1;entryDx=0;entryDy=0;" parent="1" source="MpqgmqiErPWoHgp3vNXM-8" target="cA_QYkyTXe2NhLURIJ-S-1" edge="1">
          <mxGeometry relative="1" as="geometry" />
        </mxCell>
        <mxCell id="MpqgmqiErPWoHgp3vNXM-8" value="Ανανέωσε στατιστικά δημοτικότηατς" style="ellipse;shape=umlControl;whiteSpace=wrap;html=1;" parent="1" vertex="1">
          <mxGeometry x="589" y="660" width="90" height="90" as="geometry" />
        </mxCell>
        <mxCell id="cA_QYkyTXe2NhLURIJ-S-1" value="Event" style="ellipse;shape=umlEntity;whiteSpace=wrap;html=1;" parent="1" vertex="1">
          <mxGeometry x="594" y="515" width="80" height="80" as="geometry" />
        </mxCell>
        <mxCell id="cA_QYkyTXe2NhLURIJ-S-9" style="edgeStyle=orthogonalEdgeStyle;rounded=0;orthogonalLoop=1;jettySize=auto;html=1;fillColor=#f8cecc;strokeColor=#b85450;" parent="1" source="cA_QYkyTXe2NhLURIJ-S-6" target="cA_QYkyTXe2NhLURIJ-S-7" edge="1">
          <mxGeometry relative="1" as="geometry" />
        </mxCell>
        <mxCell id="cA_QYkyTXe2NhLURIJ-S-11" style="edgeStyle=orthogonalEdgeStyle;rounded=0;orthogonalLoop=1;jettySize=auto;html=1;fillColor=#f8cecc;strokeColor=#b85450;" parent="1" source="cA_QYkyTXe2NhLURIJ-S-6" target="MpqgmqiErPWoHgp3vNXM-1" edge="1">
          <mxGeometry relative="1" as="geometry">
            <Array as="points">
              <mxPoint x="514" y="680" />
              <mxPoint x="439" y="680" />
            </Array>
          </mxGeometry>
        </mxCell>
        <mxCell id="cA_QYkyTXe2NhLURIJ-S-6" value="Ανανέωσε" style="ellipse;shape=umlControl;whiteSpace=wrap;html=1;" parent="1" vertex="1">
          <mxGeometry x="474" y="370" width="80" height="80" as="geometry" />
        </mxCell>
        <mxCell id="cA_QYkyTXe2NhLURIJ-S-7" value="Score" style="ellipse;shape=umlEntity;whiteSpace=wrap;html=1;" parent="1" vertex="1">
          <mxGeometry x="599" y="370" width="80" height="80" as="geometry" />
        </mxCell>
        <mxCell id="8i0UhGORvvbaVkcxgrIk-3" value="Συμμετοχή σε event" style="ellipse;shape=umlEntity;whiteSpace=wrap;html=1;" vertex="1" parent="1">
          <mxGeometry x="589" y="770" width="80" height="80" as="geometry" />
        </mxCell>
        <mxCell id="8i0UhGORvvbaVkcxgrIk-5" value="Invite Link" style="ellipse;shape=umlEntity;whiteSpace=wrap;html=1;" vertex="1" parent="1">
          <mxGeometry x="399" y="920" width="80" height="80" as="geometry" />
        </mxCell>
        <mxCell id="UJacOlHFctdMWeNUAbmr-3" style="edgeStyle=orthogonalEdgeStyle;rounded=0;orthogonalLoop=1;jettySize=auto;html=1;entryX=0.5;entryY=0;entryDx=0;entryDy=0;" edge="1" parent="1" source="UJacOlHFctdMWeNUAbmr-1" target="8i0UhGORvvbaVkcxgrIk-5">
          <mxGeometry relative="1" as="geometry">
            <mxPoint x="439" y="910" as="targetPoint" />
          </mxGeometry>
        </mxCell>
        <mxCell id="UJacOlHFctdMWeNUAbmr-4" style="edgeStyle=orthogonalEdgeStyle;rounded=0;orthogonalLoop=1;jettySize=auto;html=1;entryX=0.986;entryY=0.493;entryDx=0;entryDy=0;entryPerimeter=0;" edge="1" parent="1" source="UJacOlHFctdMWeNUAbmr-1" target="MpqgmqiErPWoHgp3vNXM-2">
          <mxGeometry relative="1" as="geometry" />
        </mxCell>
        <mxCell id="UJacOlHFctdMWeNUAbmr-1" value="Δημιούργησε" style="ellipse;shape=umlControl;whiteSpace=wrap;html=1;" vertex="1" parent="1">
          <mxGeometry x="404" y="810" width="70" height="80" as="geometry" />
        </mxCell>
      </root>
    </mxGraphModel>
  </diagram>
  <diagram id="2KaHTcqRT0IbO6rxHAML" name="Page-4">
    <mxGraphModel dx="801" dy="868" grid="1" gridSize="10" guides="1" tooltips="1" connect="1" arrows="1" fold="1" page="1" pageScale="1" pageWidth="850" pageHeight="1100" math="0" shadow="0">
      <root>
        <mxCell id="0" />
        <mxCell id="1" parent="0" />
        <mxCell id="g-JDf_nJGmnyqQCLsM5n-1" style="edgeStyle=orthogonalEdgeStyle;rounded=0;orthogonalLoop=1;jettySize=auto;html=1;" edge="1" parent="1" source="g-JDf_nJGmnyqQCLsM5n-15" target="g-JDf_nJGmnyqQCLsM5n-21">
          <mxGeometry relative="1" as="geometry">
            <Array as="points">
              <mxPoint x="157" y="136" />
              <mxPoint x="157" y="76" />
            </Array>
          </mxGeometry>
        </mxCell>
        <mxCell id="g-JDf_nJGmnyqQCLsM5n-2" value="&lt;span style=&quot;font-size: 12px;&quot;&gt;Επιλέγει&lt;/span&gt;" style="edgeLabel;html=1;align=center;verticalAlign=middle;resizable=0;points=[];" vertex="1" connectable="0" parent="g-JDf_nJGmnyqQCLsM5n-1">
          <mxGeometry x="0.112" relative="1" as="geometry">
            <mxPoint x="16" y="1000" as="offset" />
          </mxGeometry>
        </mxCell>
        <mxCell id="g-JDf_nJGmnyqQCLsM5n-3" style="edgeStyle=orthogonalEdgeStyle;rounded=0;orthogonalLoop=1;jettySize=auto;html=1;" edge="1" parent="1" source="g-JDf_nJGmnyqQCLsM5n-15">
          <mxGeometry relative="1" as="geometry">
            <mxPoint x="91" y="146" as="sourcePoint" />
            <mxPoint x="263" y="196" as="targetPoint" />
            <Array as="points">
              <mxPoint x="157" y="136" />
              <mxPoint x="157" y="196" />
            </Array>
          </mxGeometry>
        </mxCell>
        <mxCell id="g-JDf_nJGmnyqQCLsM5n-4" value="&lt;font style=&quot;font-size: 12px;&quot;&gt;Επιλέγει διαθέσιμα&lt;br&gt;&amp;nbsp;Tags&lt;/font&gt;" style="edgeLabel;html=1;align=center;verticalAlign=middle;resizable=0;points=[];" vertex="1" connectable="0" parent="g-JDf_nJGmnyqQCLsM5n-3">
          <mxGeometry x="0.1043" relative="1" as="geometry">
            <mxPoint x="40" y="-20" as="offset" />
          </mxGeometry>
        </mxCell>
        <mxCell id="g-JDf_nJGmnyqQCLsM5n-5" style="edgeStyle=orthogonalEdgeStyle;rounded=0;orthogonalLoop=1;jettySize=auto;html=1;entryX=-0.016;entryY=0.501;entryDx=0;entryDy=0;entryPerimeter=0;" edge="1" parent="1" target="g-JDf_nJGmnyqQCLsM5n-31">
          <mxGeometry relative="1" as="geometry">
            <Array as="points">
              <mxPoint x="157" y="136" />
              <mxPoint x="157" y="416" />
            </Array>
            <mxPoint x="110" y="136" as="sourcePoint" />
            <mxPoint x="237" y="416" as="targetPoint" />
          </mxGeometry>
        </mxCell>
        <mxCell id="g-JDf_nJGmnyqQCLsM5n-6" value="&lt;font style=&quot;font-size: 12px;&quot;&gt;Επιλέγει Template&lt;/font&gt;" style="edgeLabel;html=1;align=center;verticalAlign=middle;resizable=0;points=[];" vertex="1" connectable="0" parent="g-JDf_nJGmnyqQCLsM5n-5">
          <mxGeometry x="0.0968" y="2" relative="1" as="geometry">
            <mxPoint x="58" y="62" as="offset" />
          </mxGeometry>
        </mxCell>
        <mxCell id="g-JDf_nJGmnyqQCLsM5n-7" style="edgeStyle=orthogonalEdgeStyle;rounded=0;orthogonalLoop=1;jettySize=auto;html=1;entryX=-0.027;entryY=0.498;entryDx=0;entryDy=0;entryPerimeter=0;" edge="1" parent="1" target="g-JDf_nJGmnyqQCLsM5n-40">
          <mxGeometry relative="1" as="geometry">
            <mxPoint x="107" y="136" as="sourcePoint" />
            <mxPoint x="237" y="536" as="targetPoint" />
            <Array as="points">
              <mxPoint x="157" y="136" />
              <mxPoint x="157" y="616" />
              <mxPoint x="254" y="616" />
            </Array>
          </mxGeometry>
        </mxCell>
        <mxCell id="g-JDf_nJGmnyqQCLsM5n-8" value="&lt;font style=&quot;font-size: 12px;&quot;&gt;Συμπλήρωνει&lt;br&gt;&amp;nbsp;κείμενο&lt;br&gt;&lt;/font&gt;" style="edgeLabel;html=1;align=center;verticalAlign=middle;resizable=0;points=[];" vertex="1" connectable="0" parent="g-JDf_nJGmnyqQCLsM5n-7">
          <mxGeometry x="0.5666" y="-2" relative="1" as="geometry">
            <mxPoint x="52" y="18" as="offset" />
          </mxGeometry>
        </mxCell>
        <mxCell id="g-JDf_nJGmnyqQCLsM5n-9" style="edgeStyle=orthogonalEdgeStyle;rounded=0;orthogonalLoop=1;jettySize=auto;html=1;entryX=-0.04;entryY=0.5;entryDx=0;entryDy=0;entryPerimeter=0;" edge="1" parent="1" source="g-JDf_nJGmnyqQCLsM5n-15" target="g-JDf_nJGmnyqQCLsM5n-50">
          <mxGeometry relative="1" as="geometry">
            <mxPoint x="87" y="216" as="sourcePoint" />
            <mxPoint x="237" y="746" as="targetPoint" />
            <Array as="points">
              <mxPoint x="157" y="136" />
              <mxPoint x="157" y="776" />
              <mxPoint x="253" y="776" />
            </Array>
          </mxGeometry>
        </mxCell>
        <mxCell id="g-JDf_nJGmnyqQCLsM5n-10" value="&lt;font style=&quot;font-size: 12px;&quot;&gt;Ανεβάζει&lt;br&gt;Πολυμέσα&lt;/font&gt;" style="edgeLabel;html=1;align=center;verticalAlign=middle;resizable=0;points=[];" vertex="1" connectable="0" parent="g-JDf_nJGmnyqQCLsM5n-9">
          <mxGeometry x="0.5857" relative="1" as="geometry">
            <mxPoint x="50" y="35" as="offset" />
          </mxGeometry>
        </mxCell>
        <mxCell id="g-JDf_nJGmnyqQCLsM5n-11" style="edgeStyle=orthogonalEdgeStyle;rounded=0;orthogonalLoop=1;jettySize=auto;html=1;entryX=-0.022;entryY=0.497;entryDx=0;entryDy=0;entryPerimeter=0;" edge="1" parent="1" target="g-JDf_nJGmnyqQCLsM5n-59">
          <mxGeometry relative="1" as="geometry">
            <mxPoint x="107" y="136" as="sourcePoint" />
            <mxPoint x="256.51" y="697.0699999999999" as="targetPoint" />
            <Array as="points">
              <mxPoint x="157" y="136" />
              <mxPoint x="157" y="906" />
              <mxPoint x="227" y="906" />
            </Array>
          </mxGeometry>
        </mxCell>
        <mxCell id="g-JDf_nJGmnyqQCLsM5n-12" value="&lt;font style=&quot;font-size: 12px;&quot;&gt;Δήλωνει το Τέλος της&lt;br&gt;&amp;nbsp;ανάπτυξης&amp;nbsp;&lt;br&gt;εικονικής ξενάγησης&lt;/font&gt;" style="edgeLabel;html=1;align=center;verticalAlign=middle;resizable=0;points=[];" vertex="1" connectable="0" parent="g-JDf_nJGmnyqQCLsM5n-11">
          <mxGeometry x="0.6319" y="1" relative="1" as="geometry">
            <mxPoint x="59" y="21" as="offset" />
          </mxGeometry>
        </mxCell>
        <mxCell id="g-JDf_nJGmnyqQCLsM5n-99" style="edgeStyle=orthogonalEdgeStyle;rounded=0;orthogonalLoop=1;jettySize=auto;html=1;entryX=0.006;entryY=0.496;entryDx=0;entryDy=0;entryPerimeter=0;" edge="1" parent="1" source="g-JDf_nJGmnyqQCLsM5n-15" target="g-JDf_nJGmnyqQCLsM5n-72">
          <mxGeometry relative="1" as="geometry">
            <Array as="points">
              <mxPoint x="157" y="136" />
              <mxPoint x="157" y="1096" />
            </Array>
          </mxGeometry>
        </mxCell>
        <mxCell id="g-JDf_nJGmnyqQCLsM5n-15" value="&lt;b&gt;&lt;font style=&quot;font-size: 14px;&quot;&gt;&amp;nbsp;Χειριστής &lt;/font&gt;&lt;/b&gt;" style="shape=umlActor;verticalLabelPosition=bottom;verticalAlign=top;html=1;outlineConnect=0;" vertex="1" parent="1">
          <mxGeometry x="60" y="96" width="50" height="100" as="geometry" />
        </mxCell>
        <mxCell id="g-JDf_nJGmnyqQCLsM5n-16" style="edgeStyle=orthogonalEdgeStyle;rounded=0;orthogonalLoop=1;jettySize=auto;html=1;exitX=0.5;exitY=0;exitDx=0;exitDy=0;exitPerimeter=0;entryX=0;entryY=1;entryDx=0;entryDy=0;entryPerimeter=0;" edge="1" parent="1" target="g-JDf_nJGmnyqQCLsM5n-15">
          <mxGeometry relative="1" as="geometry">
            <mxPoint x="45" y="276" as="sourcePoint" />
            <Array as="points">
              <mxPoint x="47" y="276" />
              <mxPoint x="47" y="196" />
            </Array>
          </mxGeometry>
        </mxCell>
        <mxCell id="g-JDf_nJGmnyqQCLsM5n-17" value="Ξεναγός" style="shape=umlActor;verticalLabelPosition=bottom;verticalAlign=top;html=1;outlineConnect=0;" vertex="1" parent="1">
          <mxGeometry x="30" y="276" width="30" height="60" as="geometry" />
        </mxCell>
        <mxCell id="g-JDf_nJGmnyqQCLsM5n-18" style="edgeStyle=orthogonalEdgeStyle;rounded=0;orthogonalLoop=1;jettySize=auto;html=1;entryX=1;entryY=1;entryDx=0;entryDy=0;entryPerimeter=0;" edge="1" parent="1" source="g-JDf_nJGmnyqQCLsM5n-19" target="g-JDf_nJGmnyqQCLsM5n-15">
          <mxGeometry relative="1" as="geometry">
            <Array as="points">
              <mxPoint x="122" y="196" />
            </Array>
          </mxGeometry>
        </mxCell>
        <mxCell id="g-JDf_nJGmnyqQCLsM5n-19" value="&lt;div&gt;Πολιτιστικός&lt;/div&gt;&lt;div&gt;Οργανισμός&lt;/div&gt;" style="shape=umlActor;verticalLabelPosition=bottom;verticalAlign=top;html=1;outlineConnect=0;" vertex="1" parent="1">
          <mxGeometry x="107" y="276" width="30" height="60" as="geometry" />
        </mxCell>
        <mxCell id="g-JDf_nJGmnyqQCLsM5n-20" style="edgeStyle=orthogonalEdgeStyle;rounded=0;orthogonalLoop=1;jettySize=auto;html=1;entryX=0;entryY=0.575;entryDx=0;entryDy=0;entryPerimeter=0;" edge="1" parent="1" source="g-JDf_nJGmnyqQCLsM5n-21" target="g-JDf_nJGmnyqQCLsM5n-24">
          <mxGeometry relative="1" as="geometry" />
        </mxCell>
        <mxCell id="g-JDf_nJGmnyqQCLsM5n-21" value="Οθόνη Δημιουργίας εικονικών ξεναγήσεων" style="shape=umlBoundary;whiteSpace=wrap;html=1;" vertex="1" parent="1">
          <mxGeometry x="267" y="36" width="100" height="80" as="geometry" />
        </mxCell>
        <mxCell id="g-JDf_nJGmnyqQCLsM5n-22" style="rounded=0;orthogonalLoop=1;jettySize=auto;html=1;entryX=0.5;entryY=0;entryDx=0;entryDy=0;" edge="1" parent="1" source="g-JDf_nJGmnyqQCLsM5n-24" target="g-JDf_nJGmnyqQCLsM5n-25">
          <mxGeometry relative="1" as="geometry" />
        </mxCell>
        <mxCell id="g-JDf_nJGmnyqQCLsM5n-23" style="edgeStyle=orthogonalEdgeStyle;rounded=0;orthogonalLoop=1;jettySize=auto;html=1;entryX=0.571;entryY=0;entryDx=0;entryDy=0;entryPerimeter=0;" edge="1" parent="1" source="g-JDf_nJGmnyqQCLsM5n-24" target="g-JDf_nJGmnyqQCLsM5n-27">
          <mxGeometry relative="1" as="geometry">
            <Array as="points">
              <mxPoint x="517" y="126" />
              <mxPoint x="427" y="126" />
            </Array>
          </mxGeometry>
        </mxCell>
        <mxCell id="g-JDf_nJGmnyqQCLsM5n-24" value="Φόρτωσε" style="ellipse;shape=umlControl;whiteSpace=wrap;html=1;" vertex="1" parent="1">
          <mxGeometry x="482" y="30" width="70" height="80" as="geometry" />
        </mxCell>
        <mxCell id="g-JDf_nJGmnyqQCLsM5n-25" value="Tags" style="ellipse;shape=umlEntity;whiteSpace=wrap;html=1;" vertex="1" parent="1">
          <mxGeometry x="477" y="156" width="80" height="80" as="geometry" />
        </mxCell>
        <mxCell id="g-JDf_nJGmnyqQCLsM5n-26" style="edgeStyle=orthogonalEdgeStyle;rounded=0;orthogonalLoop=1;jettySize=auto;html=1;" edge="1" parent="1" source="g-JDf_nJGmnyqQCLsM5n-27" target="g-JDf_nJGmnyqQCLsM5n-29">
          <mxGeometry relative="1" as="geometry" />
        </mxCell>
        <mxCell id="g-JDf_nJGmnyqQCLsM5n-27" value="Εμφάνισε" style="ellipse;shape=umlControl;whiteSpace=wrap;html=1;" vertex="1" parent="1">
          <mxGeometry x="387" y="156" width="70" height="80" as="geometry" />
        </mxCell>
        <mxCell id="g-JDf_nJGmnyqQCLsM5n-28" style="edgeStyle=orthogonalEdgeStyle;rounded=0;orthogonalLoop=1;jettySize=auto;html=1;exitX=0.518;exitY=0.992;exitDx=0;exitDy=0;exitPerimeter=0;entryX=0.513;entryY=0.039;entryDx=0;entryDy=0;entryPerimeter=0;" edge="1" parent="1" source="g-JDf_nJGmnyqQCLsM5n-29" target="g-JDf_nJGmnyqQCLsM5n-33">
          <mxGeometry relative="1" as="geometry">
            <mxPoint x="317" y="256" as="targetPoint" />
            <Array as="points">
              <mxPoint x="319" y="269" />
            </Array>
          </mxGeometry>
        </mxCell>
        <mxCell id="g-JDf_nJGmnyqQCLsM5n-29" value="Πεδίο επιλογής tags" style="shape=umlBoundary;whiteSpace=wrap;html=1;" vertex="1" parent="1">
          <mxGeometry x="267" y="156" width="100" height="80" as="geometry" />
        </mxCell>
        <mxCell id="g-JDf_nJGmnyqQCLsM5n-101" style="edgeStyle=orthogonalEdgeStyle;rounded=0;orthogonalLoop=1;jettySize=auto;html=1;" edge="1" parent="1" source="g-JDf_nJGmnyqQCLsM5n-31" target="g-JDf_nJGmnyqQCLsM5n-98">
          <mxGeometry relative="1" as="geometry" />
        </mxCell>
        <mxCell id="g-JDf_nJGmnyqQCLsM5n-31" value="Οθόνη διαθέσιμων Templates" style="shape=umlBoundary;whiteSpace=wrap;html=1;" vertex="1" parent="1">
          <mxGeometry x="259" y="376" width="100" height="80" as="geometry" />
        </mxCell>
        <mxCell id="g-JDf_nJGmnyqQCLsM5n-32" style="edgeStyle=orthogonalEdgeStyle;rounded=0;orthogonalLoop=1;jettySize=auto;html=1;entryX=0.58;entryY=0.025;entryDx=0;entryDy=0;entryPerimeter=0;" edge="1" parent="1" source="g-JDf_nJGmnyqQCLsM5n-33" target="g-JDf_nJGmnyqQCLsM5n-31">
          <mxGeometry relative="1" as="geometry" />
        </mxCell>
        <mxCell id="g-JDf_nJGmnyqQCLsM5n-33" value="Εμφάνισε" style="ellipse;shape=umlControl;whiteSpace=wrap;html=1;" vertex="1" parent="1">
          <mxGeometry x="282" y="266" width="70" height="80" as="geometry" />
        </mxCell>
        <mxCell id="bBvLLMT0Td3rzqGVYTPw-2" style="edgeStyle=orthogonalEdgeStyle;rounded=0;orthogonalLoop=1;jettySize=auto;html=1;entryX=0;entryY=0.5;entryDx=0;entryDy=0;" edge="1" parent="1" source="g-JDf_nJGmnyqQCLsM5n-36" target="g-JDf_nJGmnyqQCLsM5n-37">
          <mxGeometry relative="1" as="geometry" />
        </mxCell>
        <mxCell id="bBvLLMT0Td3rzqGVYTPw-4" style="edgeStyle=orthogonalEdgeStyle;rounded=0;orthogonalLoop=1;jettySize=auto;html=1;" edge="1" parent="1" source="g-JDf_nJGmnyqQCLsM5n-36" target="bBvLLMT0Td3rzqGVYTPw-3">
          <mxGeometry relative="1" as="geometry" />
        </mxCell>
        <mxCell id="g-JDf_nJGmnyqQCLsM5n-36" value="Δημιούργησε" style="ellipse;shape=umlControl;whiteSpace=wrap;html=1;" vertex="1" parent="1">
          <mxGeometry x="388.90999999999997" y="476" width="70" height="80" as="geometry" />
        </mxCell>
        <mxCell id="g-JDf_nJGmnyqQCLsM5n-37" value="&quot;Σελίδα&quot; εικονικής ξενάγησης" style="ellipse;shape=umlEntity;whiteSpace=wrap;html=1;" vertex="1" parent="1">
          <mxGeometry x="507" y="476" width="80" height="80" as="geometry" />
        </mxCell>
        <mxCell id="bBvLLMT0Td3rzqGVYTPw-7" style="edgeStyle=orthogonalEdgeStyle;rounded=0;orthogonalLoop=1;jettySize=auto;html=1;entryX=0.559;entryY=0.01;entryDx=0;entryDy=0;entryPerimeter=0;" edge="1" parent="1" source="g-JDf_nJGmnyqQCLsM5n-40" target="g-JDf_nJGmnyqQCLsM5n-52">
          <mxGeometry relative="1" as="geometry" />
        </mxCell>
        <mxCell id="g-JDf_nJGmnyqQCLsM5n-40" value="Οθόνη Επεξεργασίας &quot;Σελίδας&quot; εικονικής ξενάγησης" style="shape=umlBoundary;whiteSpace=wrap;html=1;" vertex="1" parent="1">
          <mxGeometry x="256.95" y="576" width="103.91" height="80" as="geometry" />
        </mxCell>
        <mxCell id="g-JDf_nJGmnyqQCLsM5n-46" style="edgeStyle=orthogonalEdgeStyle;rounded=0;orthogonalLoop=1;jettySize=auto;html=1;entryX=-0.071;entryY=0.552;entryDx=0;entryDy=0;entryPerimeter=0;" edge="1" parent="1" source="g-JDf_nJGmnyqQCLsM5n-48" target="g-JDf_nJGmnyqQCLsM5n-57">
          <mxGeometry relative="1" as="geometry">
            <Array as="points">
              <mxPoint x="587" y="770" />
              <mxPoint x="587" y="770" />
            </Array>
          </mxGeometry>
        </mxCell>
        <mxCell id="g-JDf_nJGmnyqQCLsM5n-48" value="Ανέβασε πολυμέσα" style="ellipse;shape=umlControl;whiteSpace=wrap;html=1;" vertex="1" parent="1">
          <mxGeometry x="507" y="736" width="70" height="80" as="geometry" />
        </mxCell>
        <mxCell id="g-JDf_nJGmnyqQCLsM5n-49" style="edgeStyle=orthogonalEdgeStyle;rounded=0;orthogonalLoop=1;jettySize=auto;html=1;" edge="1" parent="1" source="g-JDf_nJGmnyqQCLsM5n-50" target="g-JDf_nJGmnyqQCLsM5n-48">
          <mxGeometry relative="1" as="geometry" />
        </mxCell>
        <mxCell id="g-JDf_nJGmnyqQCLsM5n-50" value="Οθόνη Επιλογής Πολυμέσων" style="shape=umlBoundary;whiteSpace=wrap;html=1;" vertex="1" parent="1">
          <mxGeometry x="258.9" y="736" width="100" height="80" as="geometry" />
        </mxCell>
        <mxCell id="bBvLLMT0Td3rzqGVYTPw-8" style="edgeStyle=orthogonalEdgeStyle;rounded=0;orthogonalLoop=1;jettySize=auto;html=1;entryX=0.594;entryY=-0.042;entryDx=0;entryDy=0;entryPerimeter=0;" edge="1" parent="1" source="g-JDf_nJGmnyqQCLsM5n-52" target="g-JDf_nJGmnyqQCLsM5n-50">
          <mxGeometry relative="1" as="geometry" />
        </mxCell>
        <mxCell id="bBvLLMT0Td3rzqGVYTPw-13" style="edgeStyle=orthogonalEdgeStyle;rounded=0;orthogonalLoop=1;jettySize=auto;html=1;" edge="1" parent="1" source="g-JDf_nJGmnyqQCLsM5n-52" target="g-JDf_nJGmnyqQCLsM5n-59">
          <mxGeometry relative="1" as="geometry">
            <Array as="points">
              <mxPoint x="407" y="836" />
              <mxPoint x="307" y="836" />
            </Array>
          </mxGeometry>
        </mxCell>
        <mxCell id="g-JDf_nJGmnyqQCLsM5n-52" value="Εμφάνισε" style="ellipse;shape=umlControl;whiteSpace=wrap;html=1;" vertex="1" parent="1">
          <mxGeometry x="372.09" y="646" width="70" height="80" as="geometry" />
        </mxCell>
        <mxCell id="g-JDf_nJGmnyqQCLsM5n-55" style="edgeStyle=orthogonalEdgeStyle;rounded=0;orthogonalLoop=1;jettySize=auto;html=1;fillColor=#f8cecc;strokeColor=#b85450;" edge="1" parent="1" source="g-JDf_nJGmnyqQCLsM5n-57" target="g-JDf_nJGmnyqQCLsM5n-69">
          <mxGeometry relative="1" as="geometry">
            <Array as="points">
              <mxPoint x="667" y="586" />
              <mxPoint x="667" y="586" />
            </Array>
          </mxGeometry>
        </mxCell>
        <mxCell id="g-JDf_nJGmnyqQCLsM5n-56" value="&lt;b&gt;&lt;font style=&quot;font-size: 12px;&quot;&gt;Οχι&lt;/font&gt;&lt;/b&gt;" style="edgeLabel;html=1;align=center;verticalAlign=middle;resizable=0;points=[];" vertex="1" connectable="0" parent="g-JDf_nJGmnyqQCLsM5n-55">
          <mxGeometry x="0.168" y="-1" relative="1" as="geometry">
            <mxPoint x="-21" y="31" as="offset" />
          </mxGeometry>
        </mxCell>
        <mxCell id="g-JDf_nJGmnyqQCLsM5n-57" value="Μέγεθος πολυμέσων επιτρεπτό ?" style="ellipse;shape=umlControl;whiteSpace=wrap;html=1;" vertex="1" parent="1">
          <mxGeometry x="637.09" y="726" width="70" height="80" as="geometry" />
        </mxCell>
        <mxCell id="bBvLLMT0Td3rzqGVYTPw-15" style="edgeStyle=orthogonalEdgeStyle;rounded=0;orthogonalLoop=1;jettySize=auto;html=1;entryX=0.019;entryY=0.596;entryDx=0;entryDy=0;entryPerimeter=0;" edge="1" parent="1" source="g-JDf_nJGmnyqQCLsM5n-59" target="g-JDf_nJGmnyqQCLsM5n-62">
          <mxGeometry relative="1" as="geometry" />
        </mxCell>
        <mxCell id="g-JDf_nJGmnyqQCLsM5n-59" value="Interface τερματισμού&lt;br&gt;επεξεργασίας" style="shape=umlBoundary;whiteSpace=wrap;html=1;" vertex="1" parent="1">
          <mxGeometry x="256.94999999999993" y="866" width="100" height="80" as="geometry" />
        </mxCell>
        <mxCell id="bBvLLMT0Td3rzqGVYTPw-16" style="edgeStyle=orthogonalEdgeStyle;rounded=0;orthogonalLoop=1;jettySize=auto;html=1;entryX=0.501;entryY=0.077;entryDx=0;entryDy=0;entryPerimeter=0;" edge="1" parent="1" source="g-JDf_nJGmnyqQCLsM5n-62" target="g-JDf_nJGmnyqQCLsM5n-74">
          <mxGeometry relative="1" as="geometry" />
        </mxCell>
        <mxCell id="bBvLLMT0Td3rzqGVYTPw-18" style="edgeStyle=orthogonalEdgeStyle;rounded=0;orthogonalLoop=1;jettySize=auto;html=1;exitX=1.043;exitY=0.603;exitDx=0;exitDy=0;exitPerimeter=0;entryX=0.008;entryY=0.495;entryDx=0;entryDy=0;entryPerimeter=0;fillColor=#f8cecc;strokeColor=#b85450;" edge="1" parent="1" source="g-JDf_nJGmnyqQCLsM5n-62" target="g-JDf_nJGmnyqQCLsM5n-64">
          <mxGeometry relative="1" as="geometry">
            <mxPoint x="617" y="906" as="targetPoint" />
            <Array as="points">
              <mxPoint x="614" y="906" />
            </Array>
          </mxGeometry>
        </mxCell>
        <mxCell id="g-JDf_nJGmnyqQCLsM5n-62" value="Όλα τα πεδία ορθά συμπληρωμένα ?" style="ellipse;shape=umlControl;whiteSpace=wrap;html=1;" vertex="1" parent="1">
          <mxGeometry x="427" y="846" width="100" height="100" as="geometry" />
        </mxCell>
        <mxCell id="bBvLLMT0Td3rzqGVYTPw-20" style="edgeStyle=orthogonalEdgeStyle;rounded=0;orthogonalLoop=1;jettySize=auto;html=1;entryX=0.549;entryY=-0.037;entryDx=0;entryDy=0;entryPerimeter=0;fillColor=#f8cecc;strokeColor=#b85450;" edge="1" parent="1" source="g-JDf_nJGmnyqQCLsM5n-64" target="g-JDf_nJGmnyqQCLsM5n-65">
          <mxGeometry relative="1" as="geometry" />
        </mxCell>
        <mxCell id="g-JDf_nJGmnyqQCLsM5n-64" value="Εμφάνισε μήνυμα μη συμπλήρωσης" style="ellipse;shape=umlControl;whiteSpace=wrap;html=1;" vertex="1" parent="1">
          <mxGeometry x="623.09" y="856" width="90" height="100" as="geometry" />
        </mxCell>
        <mxCell id="g-JDf_nJGmnyqQCLsM5n-65" value="Οθόνη Δημιουργίας εικονικών ξεναγήσεων" style="shape=umlBoundary;whiteSpace=wrap;html=1;" vertex="1" parent="1">
          <mxGeometry x="613.09" y="996" width="100" height="80" as="geometry" />
        </mxCell>
        <mxCell id="g-JDf_nJGmnyqQCLsM5n-68" style="edgeStyle=orthogonalEdgeStyle;rounded=0;orthogonalLoop=1;jettySize=auto;html=1;fillColor=#f8cecc;strokeColor=#b85450;" edge="1" parent="1" source="g-JDf_nJGmnyqQCLsM5n-69" target="g-JDf_nJGmnyqQCLsM5n-70">
          <mxGeometry relative="1" as="geometry">
            <Array as="points">
              <mxPoint x="667" y="486" />
              <mxPoint x="667" y="486" />
            </Array>
          </mxGeometry>
        </mxCell>
        <mxCell id="g-JDf_nJGmnyqQCLsM5n-69" value="Εμφάνισε μήνυμα μεγάλου μεγέθους" style="ellipse;shape=umlControl;whiteSpace=wrap;html=1;" vertex="1" parent="1">
          <mxGeometry x="637.09" y="496" width="76" height="80" as="geometry" />
        </mxCell>
        <mxCell id="g-JDf_nJGmnyqQCLsM5n-70" value="Οθόνη Επιλογής Πολυμέσων" style="shape=umlBoundary;whiteSpace=wrap;html=1;" vertex="1" parent="1">
          <mxGeometry x="617" y="386" width="100" height="80" as="geometry" />
        </mxCell>
        <mxCell id="g-JDf_nJGmnyqQCLsM5n-100" style="edgeStyle=orthogonalEdgeStyle;rounded=0;orthogonalLoop=1;jettySize=auto;html=1;entryX=0.561;entryY=-0.009;entryDx=0;entryDy=0;entryPerimeter=0;exitX=-0.011;exitY=0.504;exitDx=0;exitDy=0;exitPerimeter=0;" edge="1" parent="1" source="g-JDf_nJGmnyqQCLsM5n-74" target="g-JDf_nJGmnyqQCLsM5n-72">
          <mxGeometry relative="1" as="geometry">
            <mxPoint x="417" y="1036" as="sourcePoint" />
            <Array as="points">
              <mxPoint x="285" y="1036" />
            </Array>
          </mxGeometry>
        </mxCell>
        <mxCell id="g-JDf_nJGmnyqQCLsM5n-74" value="Εμφάνισε" style="ellipse;shape=umlControl;whiteSpace=wrap;html=1;" vertex="1" parent="1">
          <mxGeometry x="442.09" y="996" width="70" height="80" as="geometry" />
        </mxCell>
        <mxCell id="g-JDf_nJGmnyqQCLsM5n-75" style="edgeStyle=orthogonalEdgeStyle;rounded=0;orthogonalLoop=1;jettySize=auto;html=1;" edge="1" parent="1" target="g-JDf_nJGmnyqQCLsM5n-82">
          <mxGeometry relative="1" as="geometry">
            <mxPoint x="332.1499999999999" y="1236" as="sourcePoint" />
            <mxPoint x="488.13" y="1350" as="targetPoint" />
            <Array as="points">
              <mxPoint x="447.15" y="1236" />
              <mxPoint x="447.15" y="1296" />
            </Array>
          </mxGeometry>
        </mxCell>
        <mxCell id="g-JDf_nJGmnyqQCLsM5n-76" value="&lt;b&gt;&lt;font style=&quot;font-size: 12px;&quot;&gt;Ναι&lt;/font&gt;&lt;/b&gt;" style="edgeLabel;html=1;align=center;verticalAlign=middle;resizable=0;points=[];" vertex="1" connectable="0" parent="g-JDf_nJGmnyqQCLsM5n-75">
          <mxGeometry x="0.2691" y="-1" relative="1" as="geometry">
            <mxPoint x="-29" y="-11" as="offset" />
          </mxGeometry>
        </mxCell>
        <mxCell id="g-JDf_nJGmnyqQCLsM5n-77" style="edgeStyle=orthogonalEdgeStyle;rounded=0;orthogonalLoop=1;jettySize=auto;html=1;entryX=0;entryY=0.5;entryDx=0;entryDy=0;entryPerimeter=0;" edge="1" parent="1" source="g-JDf_nJGmnyqQCLsM5n-80" target="g-JDf_nJGmnyqQCLsM5n-86">
          <mxGeometry relative="1" as="geometry" />
        </mxCell>
        <mxCell id="g-JDf_nJGmnyqQCLsM5n-78" style="edgeStyle=orthogonalEdgeStyle;rounded=0;orthogonalLoop=1;jettySize=auto;html=1;fillColor=#f8cecc;strokeColor=#b85450;" edge="1" parent="1" source="g-JDf_nJGmnyqQCLsM5n-80">
          <mxGeometry relative="1" as="geometry">
            <Array as="points">
              <mxPoint x="367.15" y="1236" />
              <mxPoint x="367.15" y="1161" />
            </Array>
            <mxPoint x="417" y="1160" as="targetPoint" />
          </mxGeometry>
        </mxCell>
        <mxCell id="g-JDf_nJGmnyqQCLsM5n-79" style="edgeStyle=orthogonalEdgeStyle;rounded=0;orthogonalLoop=1;jettySize=auto;html=1;" edge="1" parent="1" source="g-JDf_nJGmnyqQCLsM5n-80" target="g-JDf_nJGmnyqQCLsM5n-84">
          <mxGeometry relative="1" as="geometry">
            <Array as="points">
              <mxPoint x="447" y="1236" />
              <mxPoint x="447" y="1412" />
            </Array>
            <mxPoint x="486.16999999999996" y="1412" as="targetPoint" />
          </mxGeometry>
        </mxCell>
        <mxCell id="g-JDf_nJGmnyqQCLsM5n-80" value="Επιβεβαιωσε ο χειριστής;" style="ellipse;shape=umlControl;whiteSpace=wrap;html=1;fontFamily=Helvetica;fontSize=11;fontColor=default;" vertex="1" parent="1">
          <mxGeometry x="262.15" y="1196" width="70" height="80" as="geometry" />
        </mxCell>
        <mxCell id="g-JDf_nJGmnyqQCLsM5n-81" style="edgeStyle=orthogonalEdgeStyle;rounded=0;orthogonalLoop=1;jettySize=auto;html=1;" edge="1" parent="1" source="g-JDf_nJGmnyqQCLsM5n-82" target="g-JDf_nJGmnyqQCLsM5n-88">
          <mxGeometry relative="1" as="geometry" />
        </mxCell>
        <mxCell id="g-JDf_nJGmnyqQCLsM5n-82" value="Δημιούργησε" style="ellipse;shape=umlControl;whiteSpace=wrap;html=1;" vertex="1" parent="1">
          <mxGeometry x="486.15" y="1256" width="70" height="80" as="geometry" />
        </mxCell>
        <mxCell id="g-JDf_nJGmnyqQCLsM5n-83" style="edgeStyle=orthogonalEdgeStyle;rounded=0;orthogonalLoop=1;jettySize=auto;html=1;entryX=0;entryY=0.5;entryDx=0;entryDy=0;" edge="1" parent="1" target="g-JDf_nJGmnyqQCLsM5n-88">
          <mxGeometry relative="1" as="geometry">
            <mxPoint x="557.24" y="1416" as="sourcePoint" />
          </mxGeometry>
        </mxCell>
        <mxCell id="g-JDf_nJGmnyqQCLsM5n-84" value="Αποθήκευσε" style="ellipse;shape=umlControl;whiteSpace=wrap;html=1;" vertex="1" parent="1">
          <mxGeometry x="486.15" y="1366" width="70" height="80" as="geometry" />
        </mxCell>
        <mxCell id="g-JDf_nJGmnyqQCLsM5n-85" style="edgeStyle=orthogonalEdgeStyle;rounded=0;orthogonalLoop=1;jettySize=auto;html=1;entryX=0.618;entryY=1.028;entryDx=0;entryDy=0;entryPerimeter=0;" edge="1" parent="1" source="g-JDf_nJGmnyqQCLsM5n-86" target="g-JDf_nJGmnyqQCLsM5n-87">
          <mxGeometry relative="1" as="geometry">
            <mxPoint x="602.115" y="1176" as="targetPoint" />
            <Array as="points">
              <mxPoint x="677" y="1246" />
              <mxPoint x="677" y="1188" />
            </Array>
          </mxGeometry>
        </mxCell>
        <mxCell id="g-JDf_nJGmnyqQCLsM5n-86" value="Εμφάνισε" style="ellipse;shape=umlControl;whiteSpace=wrap;html=1;" vertex="1" parent="1">
          <mxGeometry x="567.15" y="1196" width="70" height="80" as="geometry" />
        </mxCell>
        <mxCell id="g-JDf_nJGmnyqQCLsM5n-87" value="&lt;div&gt;Οθόνη ιστορικού ξεναγήσεων&lt;/div&gt;" style="shape=umlBoundary;whiteSpace=wrap;html=1;" vertex="1" parent="1">
          <mxGeometry x="617" y="1106" width="100" height="80" as="geometry" />
        </mxCell>
        <mxCell id="g-JDf_nJGmnyqQCLsM5n-88" value="Εικονική ξενάγηση" style="ellipse;shape=umlEntity;whiteSpace=wrap;html=1;" vertex="1" parent="1">
          <mxGeometry x="597.15" y="1316" width="80" height="80" as="geometry" />
        </mxCell>
        <mxCell id="g-JDf_nJGmnyqQCLsM5n-94" style="edgeStyle=orthogonalEdgeStyle;rounded=0;orthogonalLoop=1;jettySize=auto;html=1;exitX=1.002;exitY=0.502;exitDx=0;exitDy=0;exitPerimeter=0;entryX=0.499;entryY=0.017;entryDx=0;entryDy=0;entryPerimeter=0;fillColor=#f8cecc;strokeColor=#b85450;" edge="1" parent="1" target="g-JDf_nJGmnyqQCLsM5n-86">
          <mxGeometry relative="1" as="geometry">
            <mxPoint x="502.3499999999998" y="1163.228" as="sourcePoint" />
            <mxPoint x="612.15" y="1163" as="targetPoint" />
            <Array as="points">
              <mxPoint x="602.15" y="1163" />
            </Array>
          </mxGeometry>
        </mxCell>
        <mxCell id="g-JDf_nJGmnyqQCLsM5n-95" value="Αποθήκευσε&lt;br&gt;στο υπολογιστικό μέσο του χειριστή" style="ellipse;shape=umlControl;whiteSpace=wrap;html=1;" vertex="1" parent="1">
          <mxGeometry x="421.99999999999994" y="1106" width="100" height="114" as="geometry" />
        </mxCell>
        <mxCell id="g-JDf_nJGmnyqQCLsM5n-96" value="&lt;font style=&quot;font-size: 12px;&quot;&gt;&lt;b&gt;Οχι&lt;/b&gt;&lt;/font&gt;" style="edgeLabel;html=1;align=center;verticalAlign=middle;resizable=0;points=[];" vertex="1" connectable="0" parent="1">
          <mxGeometry x="377.1499999999999" y="1146" as="geometry" />
        </mxCell>
        <mxCell id="g-JDf_nJGmnyqQCLsM5n-103" style="edgeStyle=orthogonalEdgeStyle;rounded=0;orthogonalLoop=1;jettySize=auto;html=1;entryX=0;entryY=0.5;entryDx=0;entryDy=0;" edge="1" parent="1" source="g-JDf_nJGmnyqQCLsM5n-98" target="g-JDf_nJGmnyqQCLsM5n-102">
          <mxGeometry relative="1" as="geometry" />
        </mxCell>
        <mxCell id="bBvLLMT0Td3rzqGVYTPw-1" style="edgeStyle=orthogonalEdgeStyle;rounded=0;orthogonalLoop=1;jettySize=auto;html=1;" edge="1" parent="1" source="g-JDf_nJGmnyqQCLsM5n-98" target="g-JDf_nJGmnyqQCLsM5n-36">
          <mxGeometry relative="1" as="geometry">
            <mxPoint x="424" y="476" as="targetPoint" />
          </mxGeometry>
        </mxCell>
        <mxCell id="g-JDf_nJGmnyqQCLsM5n-98" value="Χρησιμο-ποίησε" style="ellipse;shape=umlControl;whiteSpace=wrap;html=1;" vertex="1" parent="1">
          <mxGeometry x="388.90999999999997" y="376" width="70" height="80" as="geometry" />
        </mxCell>
        <mxCell id="g-JDf_nJGmnyqQCLsM5n-102" value="Template" style="ellipse;shape=umlEntity;whiteSpace=wrap;html=1;" vertex="1" parent="1">
          <mxGeometry x="507" y="376" width="80" height="80" as="geometry" />
        </mxCell>
        <mxCell id="bBvLLMT0Td3rzqGVYTPw-5" style="edgeStyle=orthogonalEdgeStyle;rounded=0;orthogonalLoop=1;jettySize=auto;html=1;entryX=0.578;entryY=0;entryDx=0;entryDy=0;entryPerimeter=0;" edge="1" parent="1" source="bBvLLMT0Td3rzqGVYTPw-3" target="g-JDf_nJGmnyqQCLsM5n-40">
          <mxGeometry relative="1" as="geometry" />
        </mxCell>
        <mxCell id="bBvLLMT0Td3rzqGVYTPw-3" value="Εμφάνισε" style="ellipse;shape=umlControl;whiteSpace=wrap;html=1;" vertex="1" parent="1">
          <mxGeometry x="282" y="476" width="70" height="80" as="geometry" />
        </mxCell>
        <mxCell id="iIdzEu06ljTb_AWhox_i-1" style="edgeStyle=orthogonalEdgeStyle;rounded=0;orthogonalLoop=1;jettySize=auto;html=1;entryX=0.544;entryY=0.006;entryDx=0;entryDy=0;entryPerimeter=0;" edge="1" parent="1" source="g-JDf_nJGmnyqQCLsM5n-72" target="g-JDf_nJGmnyqQCLsM5n-80">
          <mxGeometry relative="1" as="geometry">
            <Array as="points">
              <mxPoint x="287" y="1166" />
              <mxPoint x="300" y="1166" />
            </Array>
          </mxGeometry>
        </mxCell>
        <mxCell id="g-JDf_nJGmnyqQCLsM5n-72" value="Οθόνη επιβεβαίωσης ανάρτησης" style="shape=umlBoundary;whiteSpace=wrap;html=1;" vertex="1" parent="1">
          <mxGeometry x="228.91" y="1056" width="100" height="80" as="geometry" />
        </mxCell>
        <mxCell id="bBvLLMT0Td3rzqGVYTPw-17" value="&lt;b&gt;&lt;font style=&quot;font-size: 12px;&quot;&gt;Ναι&lt;/font&gt;&lt;/b&gt;" style="edgeLabel;html=1;align=center;verticalAlign=middle;resizable=0;points=[];" vertex="1" connectable="0" parent="1">
          <mxGeometry x="497" y="976.0033333333336" as="geometry" />
        </mxCell>
        <mxCell id="bBvLLMT0Td3rzqGVYTPw-19" value="&lt;font style=&quot;font-size: 12px;&quot;&gt;&lt;b&gt;Οχι&lt;/b&gt;&lt;/font&gt;" style="edgeLabel;html=1;align=center;verticalAlign=middle;resizable=0;points=[];" vertex="1" connectable="0" parent="1">
          <mxGeometry x="496.9999999999999" y="1210" as="geometry">
            <mxPoint x="73" y="-320" as="offset" />
          </mxGeometry>
        </mxCell>
      </root>
    </mxGraphModel>
  </diagram>
</mxfile>
